<?xml version="1.0" standalone="no"?>
<!DOCTYPE svg PUBLIC "-//W3C//DTD SVG 20010904//EN"
 "http://www.w3.org/TR/2001/REC-SVG-20010904/DTD/svg10.dtd">
<svg version="1.0" xmlns="http://www.w3.org/2000/svg"
 width="225.000000pt" height="225.000000pt" viewBox="0 0 225.000000 225.000000"
 preserveAspectRatio="xMidYMid meet">

<g transform="translate(0.000000,225.000000) scale(0.100000,-0.100000)"
fill="#000000" stroke="none">
<path d="M178 1724 c-11 -10 -10 -52 1 -58 23 -14 44 -112 56 -261 16 -197 33
-250 107 -323 59 -59 153 -108 282 -148 l88 -27 -4 -91 c-4 -76 -11 -105 -42
-179 -29 -70 -35 -92 -25 -103 27 -32 46 -15 93 80 27 56 66 116 96 149 l50
55 113 -48 c264 -114 456 -120 603 -19 27 18 112 97 189 176 125 127 148 146
218 178 93 43 96 56 27 118 -111 100 -283 190 -435 227 -163 41 -395 12 -403
-49 -5 -36 14 -40 81 -19 178 57 422 -2 635 -152 68 -47 82 -70 46 -70 -27 0
-145 -84 -257 -182 -159 -140 -248 -176 -389 -156 -78 11 -129 35 -146 71 -12
24 -11 33 5 65 15 32 30 42 98 71 44 19 123 49 175 67 103 35 125 53 98 80
-15 15 -25 16 -95 5 -43 -7 -118 -26 -166 -42 -49 -16 -99 -29 -113 -29 -31 0
-74 42 -74 72 l0 23 -21 -25 c-11 -14 -40 -65 -65 -115 -45 -90 -64 -119 -64
-97 0 25 52 147 86 204 30 48 34 61 23 74 -22 27 -51 11 -86 -46 -38 -63 -74
-155 -99 -250 -11 -43 -28 -76 -48 -98 l-31 -33 -5 58 c-5 51 -2 67 27 130 72
156 82 312 28 431 -52 116 -195 222 -360 267 -65 18 -285 32 -297 19z m250
-80 c94 -20 219 -83 276 -139 70 -70 91 -123 93 -235 2 -52 0 -89 -3 -82 -5
10 -9 10 -20 1 -25 -20 -61 5 -90 63 -34 68 -72 122 -122 176 -35 38 -43 42
-61 32 -29 -15 -26 -33 13 -99 19 -31 51 -93 72 -139 31 -68 36 -88 28 -110
-13 -38 -53 -40 -111 -7 -131 78 -162 137 -174 342 -9 150 -11 163 -34 163
-14 0 -35 29 -35 49 0 12 61 7 168 -15z"/>
<path d="M1087 1352 c-21 -23 -22 -58 -1 -66 35 -14 86 42 63 70 -16 19 -43
18 -62 -4z"/>
</g>
</svg>
